<svg width="110" height="110" viewBox="0 0 110 110" fill="none" xmlns="http://www.w3.org/2000/svg">
<path d="M0 55C0 24.6243 24.6243 0 55 0V0C85.3757 0 110 24.6243 110 55V55C110 85.3757 85.3757 110 55 110V110C24.6243 110 0 85.3757 0 55V55Z" fill="#4E4BF6"/>
<path d="M27.25 72V37.0909H36.7273V64.3636H50.8409V72H27.25ZM54.6719 72V37.0909H69.7401C72.331 37.0909 74.598 37.5625 76.5412 38.5057C78.4844 39.4489 79.9957 40.8068 81.0753 42.5795C82.1548 44.3523 82.6946 46.4773 82.6946 48.9545C82.6946 51.4545 82.1378 53.5625 81.0241 55.2784C79.9219 56.9943 78.3707 58.2898 76.3707 59.1648C74.3821 60.0398 72.0582 60.4773 69.3991 60.4773H60.3991V53.1136H67.4901C68.6037 53.1136 69.5526 52.9773 70.3366 52.7045C71.1321 52.4205 71.7401 51.9716 72.1605 51.358C72.5923 50.7443 72.8082 49.9432 72.8082 48.9545C72.8082 47.9545 72.5923 47.142 72.1605 46.517C71.7401 45.8807 71.1321 45.4148 70.3366 45.1193C69.5526 44.8125 68.6037 44.6591 67.4901 44.6591H64.1491V72H54.6719ZM75.1264 55.9773L83.8537 72H73.5582L65.0355 55.9773H75.1264Z" fill="white"/>
</svg>
