<svg width="118" height="118" viewBox="0 0 118 118" fill="none" xmlns="http://www.w3.org/2000/svg">
<rect width="118" height="118" rx="8" fill="#403DE8"/>
<path d="M31.25 76V41.0909H40.7273V68.3636H54.8409V76H31.25ZM58.6719 76V41.0909H73.7401C76.331 41.0909 78.598 41.5625 80.5412 42.5057C82.4844 43.4489 83.9957 44.8068 85.0753 46.5795C86.1548 48.3523 86.6946 50.4773 86.6946 52.9545C86.6946 55.4545 86.1378 57.5625 85.0241 59.2784C83.9219 60.9943 82.3707 62.2898 80.3707 63.1648C78.3821 64.0398 76.0582 64.4773 73.3991 64.4773H64.3991V57.1136H71.4901C72.6037 57.1136 73.5526 56.9773 74.3366 56.7045C75.1321 56.4205 75.7401 55.9716 76.1605 55.358C76.5923 54.7443 76.8082 53.9432 76.8082 52.9545C76.8082 51.9545 76.5923 51.142 76.1605 50.517C75.7401 49.8807 75.1321 49.4148 74.3366 49.1193C73.5526 48.8125 72.6037 48.6591 71.4901 48.6591H68.1491V76H58.6719ZM79.1264 59.9773L87.8537 76H77.5582L69.0355 59.9773H79.1264Z" fill="white"/>
</svg>
