<svg width="264" height="39" viewBox="0 0 264 39" fill="none" xmlns="http://www.w3.org/2000/svg">
<path d="M0.25 38V3.09091H9.72727V30.3636H23.8409V38H0.25ZM27.8082 38V11.8182H37.2173V38H27.8082ZM32.5128 9.09091C31.2401 9.09091 30.1491 8.67045 29.2401 7.82955C28.331 6.98864 27.8764 5.97727 27.8764 4.79545C27.8764 3.61364 28.331 2.60227 29.2401 1.76136C30.1491 0.920454 31.2401 0.5 32.5128 0.5C33.7969 0.5 34.8878 0.920454 35.7855 1.76136C36.6946 2.60227 37.1491 3.61364 37.1491 4.79545C37.1491 5.97727 36.6946 6.98864 35.7855 7.82955C34.8878 8.67045 33.7969 9.09091 32.5128 9.09091ZM51.4205 23.2727V38H42.0114V11.8182H50.9432V16.7955H51.2159C51.7841 15.1364 52.7841 13.8352 54.2159 12.892C55.6591 11.9489 57.3409 11.4773 59.2614 11.4773C61.1136 11.4773 62.7216 11.9034 64.0852 12.7557C65.4602 13.5966 66.5227 14.7557 67.2727 16.233C68.0341 17.7102 68.4091 19.3977 68.3977 21.2955V38H58.9886V23.2727C59 21.9773 58.6705 20.9602 58 20.2216C57.3409 19.483 56.4205 19.1136 55.2386 19.1136C54.4659 19.1136 53.7898 19.2841 53.2102 19.625C52.642 19.9545 52.2045 20.4318 51.8977 21.0568C51.5909 21.6705 51.4318 22.4091 51.4205 23.2727ZM81.4972 31.7955L81.5653 20.6136H82.7926L89.1335 11.8182H99.7017L89.0653 25.5227H86.4062L81.4972 31.7955ZM73.0426 38V3.09091H82.4517V38H73.0426ZM89.2017 38L83.2017 27.6364L89.3381 20.9545L99.9744 38H89.2017ZM102.152 38V11.8182H111.288V16.7955H111.561C112.038 14.9545 112.794 13.608 113.828 12.7557C114.874 11.9034 116.095 11.4773 117.493 11.4773C117.902 11.4773 118.305 11.5114 118.703 11.5795C119.112 11.6364 119.504 11.7216 119.879 11.8352V19.8636C119.413 19.7045 118.839 19.5852 118.158 19.5057C117.476 19.4261 116.891 19.3864 116.402 19.3864C115.482 19.3864 114.652 19.5966 113.913 20.017C113.186 20.4261 112.612 21.0057 112.192 21.7557C111.771 22.4943 111.561 23.3636 111.561 24.3636V38H102.152ZM139.942 26.5455V11.8182H149.351V38H140.419V33.0227H140.146C139.578 34.6932 138.584 36 137.163 36.9432C135.743 37.875 134.055 38.3409 132.101 38.3409C130.271 38.3409 128.669 37.9205 127.294 37.0795C125.93 36.2386 124.868 35.0795 124.107 33.6023C123.357 32.125 122.976 30.4318 122.964 28.5227V11.8182H132.374V26.5455C132.385 27.8409 132.714 28.858 133.362 29.5966C134.021 30.3352 134.942 30.7045 136.124 30.7045C136.908 30.7045 137.584 30.5398 138.152 30.2102C138.732 29.8693 139.175 29.392 139.482 28.7784C139.8 28.1534 139.953 27.4091 139.942 26.5455ZM163.545 23.2727V38H154.136V11.8182H163.068V16.7955H163.341C163.909 15.1364 164.909 13.8352 166.341 12.892C167.784 11.9489 169.466 11.4773 171.386 11.4773C173.239 11.4773 174.847 11.9034 176.21 12.7557C177.585 13.5966 178.648 14.7557 179.398 16.233C180.159 17.7102 180.534 19.3977 180.523 21.2955V38H171.114V23.2727C171.125 21.9773 170.795 20.9602 170.125 20.2216C169.466 19.483 168.545 19.1136 167.364 19.1136C166.591 19.1136 165.915 19.2841 165.335 19.625C164.767 19.9545 164.33 20.4318 164.023 21.0568C163.716 21.6705 163.557 22.4091 163.545 23.2727ZM194.577 23.2727V38H185.168V11.8182H194.099V16.7955H194.372C194.94 15.1364 195.94 13.8352 197.372 12.892C198.815 11.9489 200.497 11.4773 202.418 11.4773C204.27 11.4773 205.878 11.9034 207.241 12.7557C208.616 13.5966 209.679 14.7557 210.429 16.233C211.19 17.7102 211.565 19.3977 211.554 21.2955V38H202.145V23.2727C202.156 21.9773 201.827 20.9602 201.156 20.2216C200.497 19.483 199.577 19.1136 198.395 19.1136C197.622 19.1136 196.946 19.2841 196.366 19.625C195.798 19.9545 195.361 20.4318 195.054 21.0568C194.747 21.6705 194.588 22.4091 194.577 23.2727ZM228.744 38.4773C225.949 38.4773 223.54 37.9432 221.517 36.875C219.506 35.7955 217.955 34.25 216.864 32.2386C215.784 30.2159 215.244 27.7955 215.244 24.9773C215.244 22.2727 215.79 19.9091 216.881 17.8864C217.972 15.8636 219.511 14.2898 221.5 13.1648C223.489 12.0398 225.835 11.4773 228.54 11.4773C230.517 11.4773 232.307 11.7841 233.909 12.3977C235.511 13.0114 236.881 13.9034 238.017 15.0739C239.153 16.233 240.028 17.642 240.642 19.3011C241.256 20.9602 241.562 22.8295 241.562 24.9091V27.0909H218.176V21.9091H232.903C232.892 21.1591 232.699 20.5 232.324 19.9318C231.96 19.3523 231.466 18.9034 230.841 18.5852C230.227 18.2557 229.528 18.0909 228.744 18.0909C227.983 18.0909 227.284 18.2557 226.648 18.5852C226.011 18.9034 225.5 19.3466 225.114 19.9148C224.739 20.483 224.54 21.1477 224.517 21.9091V27.5C224.517 28.3409 224.693 29.0909 225.045 29.75C225.398 30.4091 225.903 30.9261 226.562 31.3011C227.222 31.6761 228.017 31.8636 228.949 31.8636C229.597 31.8636 230.188 31.7727 230.722 31.5909C231.267 31.4091 231.733 31.1477 232.119 30.8068C232.506 30.4545 232.79 30.0341 232.972 29.5455H241.562C241.267 31.3636 240.568 32.9432 239.466 34.2841C238.364 35.6136 236.903 36.6477 235.085 37.3864C233.278 38.1136 231.165 38.4773 228.744 38.4773ZM245.402 38V11.8182H254.538V16.7955H254.811C255.288 14.9545 256.044 13.608 257.078 12.7557C258.124 11.9034 259.345 11.4773 260.743 11.4773C261.152 11.4773 261.555 11.5114 261.953 11.5795C262.362 11.6364 262.754 11.7216 263.129 11.8352V19.8636C262.663 19.7045 262.089 19.5852 261.408 19.5057C260.726 19.4261 260.141 19.3864 259.652 19.3864C258.732 19.3864 257.902 19.5966 257.163 20.017C256.436 20.4261 255.862 21.0057 255.442 21.7557C255.021 22.4943 254.811 23.3636 254.811 24.3636V38H245.402Z" fill="#EAEAEA"/>
</svg>
