<svg width="176" height="26" viewBox="0 0 176 26" fill="none" xmlns="http://www.w3.org/2000/svg">
<path d="M0.5 25V1.72727H6.81818V19.9091H16.2273V25H0.5ZM18.8722 25V7.54545H25.1449V25H18.8722ZM22.0085 5.72727C21.16 5.72727 20.4328 5.44697 19.8267 4.88636C19.2206 4.32576 18.9176 3.65151 18.9176 2.86364C18.9176 2.07576 19.2206 1.40151 19.8267 0.840908C20.4328 0.280303 21.16 0 22.0085 0C22.8646 0 23.5919 0.280303 24.1903 0.840908C24.7964 1.40151 25.0994 2.07576 25.0994 2.86364C25.0994 3.65151 24.7964 4.32576 24.1903 4.88636C23.5919 5.44697 22.8646 5.72727 22.0085 5.72727ZM34.6136 15.1818V25H28.3409V7.54545H34.2955V10.8636H34.4773C34.8561 9.75758 35.5227 8.89015 36.4773 8.26136C37.4394 7.63258 38.5606 7.31818 39.8409 7.31818C41.0758 7.31818 42.1477 7.60227 43.0568 8.17045C43.9735 8.73106 44.6818 9.50379 45.1818 10.4886C45.6894 11.4735 45.9394 12.5985 45.9318 13.8636V25H39.6591V15.1818C39.6667 14.3182 39.447 13.6402 39 13.1477C38.5606 12.6553 37.947 12.4091 37.1591 12.4091C36.6439 12.4091 36.1932 12.5227 35.8068 12.75C35.428 12.9697 35.1364 13.2879 34.9318 13.7045C34.7273 14.1136 34.6212 14.6061 34.6136 15.1818ZM54.6648 20.8636L54.7102 13.4091H55.5284L59.7557 7.54545H66.8011L59.7102 16.6818H57.9375L54.6648 20.8636ZM49.0284 25V1.72727H55.3011V25H49.0284ZM59.8011 25L55.8011 18.0909L59.892 13.6364L66.983 25H59.8011ZM68.4347 25V7.54545H74.5256V10.8636H74.7074C75.0256 9.63636 75.5294 8.73864 76.2188 8.17045C76.9157 7.60227 77.7301 7.31818 78.6619 7.31818C78.9347 7.31818 79.2036 7.34091 79.4688 7.38636C79.7415 7.42424 80.0028 7.48106 80.2528 7.55682V12.9091C79.9422 12.803 79.5597 12.7235 79.1051 12.6705C78.6506 12.6174 78.2604 12.5909 77.9347 12.5909C77.321 12.5909 76.768 12.7311 76.2756 13.0114C75.7907 13.2841 75.4081 13.6705 75.1278 14.1705C74.8475 14.6629 74.7074 15.2424 74.7074 15.9091V25H68.4347ZM93.6278 17.3636V7.54545H99.9006V25H93.946V21.6818H93.7642C93.3854 22.7955 92.7225 23.6667 91.7756 24.2955C90.8286 24.9167 89.7036 25.2273 88.4006 25.2273C87.1809 25.2273 86.1127 24.947 85.196 24.3864C84.2869 23.8258 83.5786 23.053 83.071 22.0682C82.571 21.0833 82.3172 19.9545 82.3097 18.6818V7.54545H88.5824V17.3636C88.59 18.2273 88.8097 18.9053 89.2415 19.3977C89.6809 19.8902 90.2945 20.1364 91.0824 20.1364C91.6051 20.1364 92.0559 20.0265 92.4347 19.8068C92.821 19.5795 93.1165 19.2614 93.321 18.8523C93.5331 18.4356 93.6354 17.9394 93.6278 17.3636ZM109.364 15.1818V25H103.091V7.54545H109.045V10.8636H109.227C109.606 9.75758 110.273 8.89015 111.227 8.26136C112.189 7.63258 113.311 7.31818 114.591 7.31818C115.826 7.31818 116.898 7.60227 117.807 8.17045C118.723 8.73106 119.432 9.50379 119.932 10.4886C120.439 11.4735 120.689 12.5985 120.682 13.8636V25H114.409V15.1818C114.417 14.3182 114.197 13.6402 113.75 13.1477C113.311 12.6553 112.697 12.4091 111.909 12.4091C111.394 12.4091 110.943 12.5227 110.557 12.75C110.178 12.9697 109.886 13.2879 109.682 13.7045C109.477 14.1136 109.371 14.6061 109.364 15.1818ZM130.051 15.1818V25H123.778V7.54545H129.733V10.8636H129.915C130.294 9.75758 130.96 8.89015 131.915 8.26136C132.877 7.63258 133.998 7.31818 135.278 7.31818C136.513 7.31818 137.585 7.60227 138.494 8.17045C139.411 8.73106 140.119 9.50379 140.619 10.4886C141.127 11.4735 141.377 12.5985 141.369 13.8636V25H135.097V15.1818C135.104 14.3182 134.884 13.6402 134.438 13.1477C133.998 12.6553 133.384 12.4091 132.597 12.4091C132.081 12.4091 131.631 12.5227 131.244 12.75C130.866 12.9697 130.574 13.2879 130.369 13.7045C130.165 14.1136 130.059 14.6061 130.051 15.1818ZM152.83 25.3182C150.966 25.3182 149.36 24.9621 148.011 24.25C146.67 23.5303 145.636 22.5 144.909 21.1591C144.189 19.8106 143.83 18.197 143.83 16.3182C143.83 14.5152 144.193 12.9394 144.92 11.5909C145.648 10.2424 146.674 9.19318 148 8.44318C149.326 7.69318 150.89 7.31818 152.693 7.31818C154.011 7.31818 155.205 7.52273 156.273 7.93182C157.341 8.34091 158.254 8.93561 159.011 9.71591C159.769 10.4886 160.352 11.428 160.761 12.5341C161.17 13.6402 161.375 14.8864 161.375 16.2727V17.7273H145.784V14.2727H155.602C155.595 13.7727 155.466 13.3333 155.216 12.9545C154.973 12.5682 154.644 12.2689 154.227 12.0568C153.818 11.8371 153.352 11.7273 152.83 11.7273C152.322 11.7273 151.856 11.8371 151.432 12.0568C151.008 12.2689 150.667 12.5644 150.409 12.9432C150.159 13.322 150.027 13.7652 150.011 14.2727V18C150.011 18.5606 150.129 19.0606 150.364 19.5C150.598 19.9394 150.936 20.2841 151.375 20.5341C151.814 20.7841 152.345 20.9091 152.966 20.9091C153.398 20.9091 153.792 20.8485 154.148 20.7273C154.511 20.6061 154.822 20.4318 155.08 20.2045C155.337 19.9697 155.527 19.6894 155.648 19.3636H161.375C161.178 20.5758 160.712 21.6288 159.977 22.5227C159.242 23.4091 158.269 24.0985 157.057 24.5909C155.852 25.0758 154.443 25.3182 152.83 25.3182ZM163.935 25V7.54545H170.026V10.8636H170.207C170.526 9.63636 171.029 8.73864 171.719 8.17045C172.416 7.60227 173.23 7.31818 174.162 7.31818C174.435 7.31818 174.704 7.34091 174.969 7.38636C175.241 7.42424 175.503 7.48106 175.753 7.55682V12.9091C175.442 12.803 175.06 12.7235 174.605 12.6705C174.151 12.6174 173.76 12.5909 173.435 12.5909C172.821 12.5909 172.268 12.7311 171.776 13.0114C171.291 13.2841 170.908 13.6705 170.628 14.1705C170.348 14.6629 170.207 15.2424 170.207 15.9091V25H163.935Z" fill="#191919"/>
</svg>
